<svg xmlns="http://www.w3.org/2000/svg" width="24" height="22" viewBox="0 0 24 22"><path fill="currentColor" fill-rule="evenodd" d="M24 22h-5.304v-7.734c0-2.024-.83-3.406-2.655-3.406-1.395 0-2.171.932-2.533 1.831-.135.323-.114.772-.114 1.222V22H8.14s.068-13.7 0-14.945h5.255V9.4c.31-1.025 1.99-2.489 4.67-2.489 3.324 0 5.936 2.15 5.936 6.779V22zM2.825 5.186h-.034C1.098 5.186 0 4.043 0 2.595 0 1.119 1.13 0 2.857 0c1.726 0 2.787 1.116 2.821 2.59 0 1.449-1.095 2.596-2.853 2.596zM.605 7.055h4.678V22H.605V7.055z"/></svg>