<svg xmlns="http://www.w3.org/2000/svg" width="25" height="20" viewBox="0 0 25 20"><path fill="currentColor" fill-rule="evenodd" d="M25 2.366c-.92.402-1.907.673-2.946.795A5.078 5.078 0 0 0 24.31.37c-.99.578-2.087.998-3.257 1.225A5.159 5.159 0 0 0 17.308 0c-2.831 0-5.127 2.26-5.127 5.048 0 .396.045.781.132 1.151A14.64 14.64 0 0 1 1.743.925a4.964 4.964 0 0 0-.695 2.538c0 1.751.905 3.296 2.281 4.201a5.167 5.167 0 0 1-2.323-.63v.063c0 2.446 1.767 4.486 4.114 4.95a5.285 5.285 0 0 1-2.317.088c.652 2.005 2.546 3.465 4.79 3.506a10.393 10.393 0 0 1-6.369 2.162c-.414 0-.823-.025-1.224-.072A14.681 14.681 0 0 0 7.862 20c9.432 0 14.591-7.693 14.591-14.364 0-.219-.005-.436-.015-.653A10.36 10.36 0 0 0 25 2.366z"/></svg>