<svg xmlns="http://www.w3.org/2000/svg" width="31" height="22" viewBox="0 0 31 22"><path fill="currentColor" fill-rule="evenodd" d="M12.3 15.057l-.002-8.788 8.376 4.409-8.375 4.379zM30.69 4.746s-.303-2.156-1.232-3.105C28.278.395 26.958.39 26.352.317 22.014 0 15.507 0 15.507 0h-.014S8.986 0 4.648.317C4.042.389 2.721.395 1.541 1.64.612 2.591.31 4.746.31 4.746S0 7.277 0 9.808v2.373c0 2.532.31 5.063.31 5.063s.302 2.155 1.231 3.104c1.18 1.246 2.73 1.207 3.419 1.337 2.48.24 10.54.315 10.54.315s6.514-.01 10.852-.326c.605-.074 1.927-.08 3.106-1.326.929-.95 1.232-3.104 1.232-3.104s.31-2.531.31-5.063V9.808c0-2.53-.31-5.062-.31-5.062z"/></svg>